<svg width="170" height="45" viewBox="0 0 170 45" fill="none" xmlns="http://www.w3.org/2000/svg">
<g clip-path="url(#clip0_329_886)">
<path d="M12.4123 45C15.3813 45 17.7881 42.5676 17.7881 39.567C17.7881 36.5665 15.3813 34.134 12.4123 34.134C9.44328 34.134 7.03644 36.5665 7.03644 39.567C7.03644 42.5676 9.44328 45 12.4123 45Z" fill="#ABFF41" fill-opacity="0.8"/>
<path d="M21.5877 10.866C24.5567 10.866 26.9636 8.43356 26.9636 5.433C26.9636 2.43244 24.5567 0 21.5877 0C18.6188 0 16.2119 2.43244 16.2119 5.433C16.2119 8.43356 18.6188 10.866 21.5877 10.866Z" fill="#ABFF41" fill-opacity="0.8"/>
<path d="M30.4818 33.2238C32.4248 33.2238 34 31.6319 34 29.6682C34 27.7045 32.4248 26.1125 30.4818 26.1125C28.5387 26.1125 26.9636 27.7045 26.9636 29.6682C26.9636 31.6319 28.5387 33.2238 30.4818 33.2238Z" fill="#ABFF41" fill-opacity="0.2"/>
<path d="M3.51821 19.6271C5.46127 19.6271 7.03642 18.0352 7.03642 16.0715C7.03642 14.1078 5.46127 12.5159 3.51821 12.5159C1.57516 12.5159 0 14.1078 0 16.0715C0 18.0352 1.57516 19.6271 3.51821 19.6271Z" fill="#ABFF41" fill-opacity="0.2"/>
<path d="M24.4586 41.359C26.6815 41.359 28.4834 39.5379 28.4834 37.2914C28.4834 35.0449 26.6815 33.2238 24.4586 33.2238C22.2358 33.2238 20.4338 35.0449 20.4338 37.2914C20.4338 39.5379 22.2358 41.359 24.4586 41.359Z" fill="#ABFF41" fill-opacity="0.5"/>
<path d="M9.82287 12.5158C12.0457 12.5158 13.8477 10.6946 13.8477 8.44813C13.8477 6.20164 12.0457 4.38049 9.82287 4.38049C7.60001 4.38049 5.79803 6.20164 5.79803 8.44813C5.79803 10.6946 7.60001 12.5158 9.82287 12.5158Z" fill="#ABFF41" fill-opacity="0.5"/>
<path fill-rule="evenodd" clip-rule="evenodd" d="M26.7947 22.5001C26.7947 28.0142 22.3717 32.4843 16.9156 32.4843C15.0377 32.4843 13.2821 31.9547 11.7872 31.0353L8.78515 31.9967C8.54608 32.0732 8.33482 31.8195 8.45027 31.5945L9.64745 29.2625C8.02644 27.4839 7.03644 25.1088 7.03644 22.5001C7.03644 16.9859 11.4595 12.5159 16.9156 12.5159C22.3717 12.5159 26.7947 16.9859 26.7947 22.5001Z" fill="#ABFF41"/>
</g>
<path d="M54.96 29.22C53.5733 29.22 52.3533 28.92 51.3 28.32C50.26 27.7067 49.4467 26.8533 48.86 25.76C48.2867 24.6667 48 23.3933 48 21.94C48 20.8333 48.16 19.84 48.48 18.96C48.8133 18.0667 49.2867 17.3067 49.9 16.68C50.5133 16.04 51.2467 15.5467 52.1 15.2C52.9667 14.8533 53.92 14.68 54.96 14.68C56.3733 14.68 57.6 14.98 58.64 15.58C59.68 16.18 60.4867 17.0267 61.06 18.12C61.6467 19.2 61.94 20.4667 61.94 21.92C61.94 23.0267 61.7733 24.0267 61.44 24.92C61.1067 25.8133 60.6333 26.58 60.02 27.22C59.4067 27.86 58.6733 28.3533 57.82 28.7C56.9667 29.0467 56.0133 29.22 54.96 29.22ZM54.96 26.58C55.7467 26.58 56.4133 26.4 56.96 26.04C57.52 25.6667 57.9467 25.1333 58.24 24.44C58.5467 23.7333 58.7 22.9 58.7 21.94C58.7 20.4733 58.3733 19.34 57.72 18.54C57.0667 17.7267 56.1467 17.32 54.96 17.32C54.1867 17.32 53.52 17.5 52.96 17.86C52.4 18.22 51.9733 18.7467 51.68 19.44C51.3867 20.1333 51.24 20.9667 51.24 21.94C51.24 23.3933 51.5667 24.5333 52.22 25.36C52.8733 26.1733 53.7867 26.58 54.96 26.58ZM65.598 32.78C65.1046 32.78 64.7246 32.6467 64.458 32.38C64.2046 32.1267 64.078 31.7467 64.078 31.24V20.54C64.078 20.0467 64.2046 19.6733 64.458 19.42C64.7246 19.1533 65.0913 19.02 65.558 19.02C66.0513 19.02 66.4246 19.1533 66.678 19.42C66.9313 19.6733 67.058 20.0467 67.058 20.54V21.9L66.838 21.12C67.038 20.48 67.438 19.9667 68.038 19.58C68.6513 19.18 69.3513 18.98 70.138 18.98C70.9913 18.98 71.738 19.1867 72.378 19.6C73.0313 20.0133 73.538 20.6 73.898 21.36C74.258 22.12 74.438 23.0267 74.438 24.08C74.438 25.1333 74.258 26.0467 73.898 26.82C73.538 27.5933 73.038 28.1867 72.398 28.6C71.758 29.0133 71.0046 29.22 70.138 29.22C69.3646 29.22 68.678 29.0333 68.078 28.66C67.478 28.2733 67.0713 27.7733 66.858 27.16H67.098V31.24C67.098 31.7467 66.9646 32.1267 66.698 32.38C66.4446 32.6467 66.078 32.78 65.598 32.78ZM69.238 26.96C69.6646 26.96 70.038 26.8533 70.358 26.64C70.6913 26.4267 70.9446 26.1133 71.118 25.7C71.3046 25.2733 71.398 24.7333 71.398 24.08C71.398 23.1067 71.198 22.3933 70.798 21.94C70.398 21.4733 69.878 21.24 69.238 21.24C68.8113 21.24 68.4313 21.34 68.098 21.54C67.778 21.74 67.5246 22.0533 67.338 22.48C67.1513 22.8933 67.058 23.4267 67.058 24.08C67.058 25.0533 67.258 25.78 67.658 26.26C68.058 26.7267 68.5846 26.96 69.238 26.96ZM81.385 29.22C80.225 29.22 79.225 29.0133 78.385 28.6C77.5583 28.1733 76.9183 27.58 76.465 26.82C76.025 26.0467 75.805 25.14 75.805 24.1C75.805 23.0867 76.0183 22.2 76.445 21.44C76.8717 20.6667 77.465 20.0667 78.225 19.64C78.9983 19.2 79.8717 18.98 80.845 18.98C81.5517 18.98 82.1917 19.1 82.765 19.34C83.3383 19.5667 83.8317 19.9 84.245 20.34C84.6583 20.7667 84.9717 21.2933 85.185 21.92C85.3983 22.5333 85.505 23.22 85.505 23.98C85.505 24.2333 85.425 24.4267 85.265 24.56C85.105 24.68 84.8717 24.74 84.565 24.74H78.285V23.18H83.325L83.005 23.46C83.005 22.9133 82.925 22.46 82.765 22.1C82.605 21.7267 82.3717 21.4467 82.065 21.26C81.7717 21.0733 81.405 20.98 80.965 20.98C80.4717 20.98 80.0517 21.0933 79.705 21.32C79.3583 21.5467 79.0917 21.8733 78.905 22.3C78.7183 22.7267 78.625 23.24 78.625 23.84V24C78.625 25.0133 78.8583 25.76 79.325 26.24C79.805 26.72 80.5117 26.96 81.445 26.96C81.765 26.96 82.1317 26.92 82.545 26.84C82.9583 26.76 83.345 26.6333 83.705 26.46C84.0117 26.3133 84.285 26.2667 84.525 26.32C84.765 26.36 84.9517 26.4667 85.085 26.64C85.2183 26.8133 85.2917 27.0133 85.305 27.24C85.3317 27.4667 85.285 27.6933 85.165 27.92C85.045 28.1333 84.845 28.3133 84.565 28.46C84.1117 28.7133 83.5983 28.9 83.025 29.02C82.465 29.1533 81.9183 29.22 81.385 29.22ZM88.7816 29.18C88.2882 29.18 87.9082 29.0467 87.6416 28.78C87.3882 28.5133 87.2616 28.1333 87.2616 27.64V20.54C87.2616 20.0467 87.3882 19.6733 87.6416 19.42C87.9082 19.1533 88.2749 19.02 88.7416 19.02C89.2216 19.02 89.5882 19.1533 89.8416 19.42C90.0949 19.6733 90.2216 20.0467 90.2216 20.54V21.68L90.0016 21.02C90.3082 20.3667 90.7616 19.8667 91.3616 19.52C91.9749 19.16 92.6682 18.98 93.4416 18.98C94.2282 18.98 94.8749 19.1333 95.3816 19.44C95.8882 19.7333 96.2682 20.1867 96.5216 20.8C96.7749 21.4 96.9016 22.1667 96.9016 23.1V27.64C96.9016 28.1333 96.7682 28.5133 96.5016 28.78C96.2482 29.0467 95.8749 29.18 95.3816 29.18C94.9016 29.18 94.5282 29.0467 94.2616 28.78C94.0082 28.5133 93.8816 28.1333 93.8816 27.64V23.24C93.8816 22.56 93.7549 22.0733 93.5016 21.78C93.2616 21.4733 92.8882 21.32 92.3816 21.32C91.7416 21.32 91.2282 21.52 90.8416 21.92C90.4682 22.32 90.2816 22.8533 90.2816 23.52V27.64C90.2816 28.6667 89.7816 29.18 88.7816 29.18ZM100.676 29.16C100.183 29.16 99.8028 29.02 99.5361 28.74C99.2828 28.4467 99.1561 28.04 99.1561 27.52V20.68C99.1561 20.1467 99.2828 19.74 99.5361 19.46C99.8028 19.1667 100.183 19.02 100.676 19.02C101.156 19.02 101.523 19.1667 101.776 19.46C102.043 19.74 102.176 20.1467 102.176 20.68V27.52C102.176 28.04 102.049 28.4467 101.796 28.74C101.543 29.02 101.169 29.16 100.676 29.16ZM100.676 17.38C100.116 17.38 99.6828 17.2533 99.3761 17C99.0828 16.7333 98.9361 16.36 98.9361 15.88C98.9361 15.3867 99.0828 15.0133 99.3761 14.76C99.6828 14.4933 100.116 14.36 100.676 14.36C101.236 14.36 101.663 14.4933 101.956 14.76C102.249 15.0133 102.396 15.3867 102.396 15.88C102.396 16.36 102.249 16.7333 101.956 17C101.663 17.2533 101.236 17.38 100.676 17.38ZM109.228 29.22C108.174 29.22 107.254 29.0133 106.468 28.6C105.694 28.1867 105.094 27.5933 104.668 26.82C104.241 26.0467 104.028 25.1333 104.028 24.08C104.028 23.2933 104.148 22.5867 104.388 21.96C104.628 21.3333 104.974 20.8 105.428 20.36C105.894 19.9067 106.448 19.5667 107.088 19.34C107.728 19.1 108.441 18.98 109.228 18.98C110.281 18.98 111.194 19.1867 111.968 19.6C112.754 20.0133 113.361 20.6 113.788 21.36C114.228 22.12 114.448 23.0267 114.448 24.08C114.448 24.88 114.321 25.5933 114.068 26.22C113.828 26.8467 113.481 27.3867 113.028 27.84C112.574 28.2933 112.021 28.64 111.368 28.88C110.728 29.1067 110.014 29.22 109.228 29.22ZM109.228 26.96C109.668 26.96 110.048 26.8533 110.368 26.64C110.688 26.4267 110.941 26.1133 111.128 25.7C111.314 25.2733 111.408 24.7333 111.408 24.08C111.408 23.1067 111.208 22.3933 110.808 21.94C110.408 21.4733 109.881 21.24 109.228 21.24C108.801 21.24 108.421 21.34 108.088 21.54C107.768 21.74 107.514 22.0533 107.328 22.48C107.154 22.8933 107.068 23.4267 107.068 24.08C107.068 25.0533 107.268 25.78 107.668 26.26C108.068 26.7267 108.588 26.96 109.228 26.96ZM117.433 29.1C116.899 29.1 116.473 28.94 116.153 28.62C115.846 28.3 115.693 27.8867 115.693 27.38C115.693 26.8867 115.846 26.4867 116.153 26.18C116.473 25.86 116.899 25.7 117.433 25.7C117.966 25.7 118.379 25.86 118.673 26.18C118.979 26.4867 119.133 26.8867 119.133 27.38C119.133 27.8867 118.979 28.3 118.673 28.62C118.379 28.94 117.966 29.1 117.433 29.1Z" fill="white"/>
<defs>
<clipPath id="clip0_329_886">
<rect width="34" height="45" fill="white"/>
</clipPath>
</defs>
</svg>
