<svg fill="none" height="49" viewBox="0 0 48 49" width="48" xmlns="http://www.w3.org/2000/svg"><path d="m44 24.5c0 11.0457-8.9543 20-20 20s-20-8.9543-20-20 8.9543-20 20-20 20 8.9543 20 20z" fill="#1575e5"/><path d="m11 24.5c0-7.1797 5.8203-13 13-13s13 5.8203 13 13v8.8182c0 .6527-.5291 1.1818-1.1818 1.1818-1.4666 0-2.8709-.2672-4.1667-.7554-.857.7101-1.8144 1.3033-2.8477 1.7552 2.6386 1.1538 4.7822 3.2291 6.0239 5.8191-3.1206 2.0129-6.8373 3.1811-10.8269 3.1811-3.9897 0-7.7064-1.1682-10.827-3.1811 1.2416-2.5898 3.3849-4.6649 6.0232-5.8187-1.0336-.452-1.9913-1.0453-2.8485-1.7556-1.2958.4882-2.7001.7554-4.1667.7554-.6527 0-1.1818-.5291-1.1818-1.1818z" fill="#a6cfff"/><g fill="#1575e5"><path clip-rule="evenodd" d="m21 27.5c.5523 0 1 .4477 1 1 0 1.1046.8954 2 2 2s2-.8954 2-2c0-.5523.4477-1 1-1s1 .4477 1 1c0 2.2091-1.7909 4-4 4s-4-1.7909-4-4c0-.5523.4477-1 1-1z" fill-rule="evenodd"/><path d="m20 22c0 .8284-.6716 1.5-1.5 1.5s-1.5-.6716-1.5-1.5.6716-1.5 1.5-1.5 1.5.6716 1.5 1.5z"/><path d="m31 22c0 .8284-.6716 1.5-1.5 1.5s-1.5-.6716-1.5-1.5.6716-1.5 1.5-1.5 1.5.6716 1.5 1.5z"/></g></svg>